
      <svg data-logo="logo" xmlns="http://www.w3.org/2000/svg" viewBox="0 0 270 45">
        <g id="logogram" transform="translate(0, 2.5) rotate(0) "><path d="M63 29.3506L38.117 5.08907C37.4008 4.39081 36.4402 4 35.44 4C31.9983 4 30.2991 8.18294 32.7659 10.583L59.4712 36.5666C60.7577 37.8183 59.8715 40 58.0765 40H9.65685C8.59599 40 7.57857 39.5786 6.82843 38.8284L1.17157 33.1716C0.421426 32.4214 0 31.404 0 30.3431V10.6484L24.883 34.9109C25.5992 35.6092 26.5598 36 27.5601 36C31.0017 36 32.7009 31.8171 30.2342 29.417L3.52882 3.43345C2.24227 2.18166 3.12849 0 4.92354 0L53.3431 0C54.404 0 55.4214 0.421427 56.1716 1.17157L61.8284 6.82843C62.5786 7.57857 63 8.59599 63 9.65685V29.3506Z" fill="#F08000"/></g>
        <g id="logotype" transform="translate(69, 1)"><path fill="#F08000" d="M28.92 42.72L28.92 42.72Q20.16 42.72 16.23 39.33Q12.30 35.94 12.30 28.56L12.30 28.56L12.30 7.80Q12.30 6.30 12.06 5.58Q11.82 4.86 10.92 4.62Q10.02 4.38 7.98 4.38L7.98 4.38L7.98 2.40L25.80 2.40L25.80 4.38Q23.82 4.38 22.89 4.59Q21.96 4.80 21.69 5.55Q21.42 6.30 21.42 7.80L21.42 7.80L21.42 28.86Q21.42 32.58 22.17 35.10Q22.92 37.62 24.63 38.88Q26.34 40.14 29.04 40.14L29.04 40.14Q31.80 40.14 33.51 38.91Q35.22 37.68 36 35.16Q36.78 32.64 36.78 28.86L36.78 28.86L36.78 7.80Q36.78 6.30 36.51 5.55Q36.24 4.80 35.31 4.59Q34.38 4.38 32.40 4.38L32.40 4.38L32.40 2.40L50.10 2.40L50.10 4.38Q48.06 4.38 47.16 4.62Q46.26 4.86 46.02 5.58Q45.78 6.30 45.78 7.80L45.78 7.80L45.78 28.56Q45.78 35.88 41.79 39.30Q37.80 42.72 28.92 42.72ZM85.92 42L70.62 42L70.62 40.02Q72 40.02 72.66 39.84Q73.32 39.66 73.53 39.06Q73.74 38.46 73.74 37.32L73.74 37.32L73.74 22.92Q73.74 20.70 73.23 19.35Q72.72 18 71.73 17.40Q70.74 16.80 69.36 16.80L69.36 16.80Q67.56 16.80 66.24 17.70Q64.92 18.60 63.30 20.16L63.30 20.16L63.12 18.12Q64.32 16.86 65.82 15.72Q67.32 14.58 69.21 13.86Q71.10 13.14 73.56 13.14L73.56 13.14Q77.52 13.14 79.86 15.39Q82.20 17.64 82.20 22.56L82.20 22.56L82.20 37.02Q82.20 38.28 82.47 38.91Q82.74 39.54 83.52 39.78Q84.30 40.02 85.92 40.02L85.92 40.02L85.92 42ZM67.14 42L51.48 42L51.48 40.02Q53.22 40.02 54.03 39.81Q54.84 39.60 55.08 38.94Q55.32 38.28 55.32 37.02L55.32 37.02L55.32 19.26Q55.32 17.94 54.99 17.46Q54.66 16.98 53.58 16.98L53.58 16.98L51.60 16.98L51.60 15L61.02 13.50L63.60 13.50L63.60 17.46L63.84 17.46L63.84 37.14Q63.84 38.40 64.11 39.03Q64.38 39.66 65.07 39.84Q65.76 40.02 67.14 40.02L67.14 40.02L67.14 42ZM102.72 42L86.88 42L86.88 40.02Q88.62 40.02 89.43 39.78Q90.24 39.54 90.48 38.91Q90.72 38.28 90.72 37.02L90.72 37.02L90.72 19.26Q90.72 17.88 90.39 17.43Q90.06 16.98 89.04 16.98L89.04 16.98L87.06 16.98L87.06 15L96.60 13.50L99.24 13.50L99.24 37.02Q99.24 38.28 99.48 38.91Q99.72 39.54 100.47 39.78Q101.22 40.02 102.72 40.02L102.72 40.02L102.72 42ZM94.74 10.14L94.74 10.14Q92.76 10.14 91.29 8.76Q89.82 7.38 89.82 5.40L89.82 5.40Q89.82 3.36 91.29 1.98Q92.76 0.60 94.74 0.60L94.74 0.60Q96.12 0.60 97.23 1.26Q98.34 1.92 99.00 3Q99.66 4.08 99.66 5.40L99.66 5.40Q99.66 7.38 98.19 8.76Q96.72 10.14 94.74 10.14ZM114.42 42.72L114.42 42.72Q111.96 42.72 110.16 41.85Q108.36 40.98 107.43 39.03Q106.50 37.08 106.50 33.90L106.50 33.90L106.50 15.96L102.90 15.96L102.90 13.98Q105.30 13.50 107.34 11.97Q109.38 10.44 110.85 8.13Q112.32 5.82 113.04 3.18L113.04 3.18L115.02 3.18L115.02 13.80L120.90 13.80L120.90 15.96L115.02 15.96L115.02 33.54Q115.02 36.30 115.77 37.71Q116.52 39.12 118.44 39.12L118.44 39.12Q119.52 39.12 120.45 38.67Q121.38 38.22 121.74 37.98L121.74 37.98L122.76 39.66Q121.98 40.20 120.90 40.92Q119.82 41.64 118.26 42.18Q116.70 42.72 114.42 42.72ZM136.20 42.72L136.20 42.72Q133.68 42.72 131.97 42.27Q130.26 41.82 129.06 41.37Q127.86 40.92 127.02 40.92L127.02 40.92Q126.36 40.92 125.94 41.22Q125.52 41.52 125.28 42L125.28 42L123.60 42L122.82 30.54L124.92 30.54Q125.28 32.16 126.15 33.93Q127.02 35.70 128.43 37.26Q129.84 38.82 131.73 39.78Q133.62 40.74 136.02 40.74L136.02 40.74Q138.00 40.74 139.68 40.05Q141.36 39.36 142.41 37.83Q143.46 36.30 143.46 34.02L143.46 34.02Q143.46 31.32 141.75 29.64Q140.04 27.96 136.80 26.76L136.80 26.76L133.74 25.68Q130.68 24.48 128.31 22.95Q125.94 21.42 124.62 19.14Q123.30 16.86 123.30 13.56L123.30 13.56Q123.30 9.96 124.92 7.29Q126.54 4.62 129.54 3.15Q132.54 1.68 136.50 1.68L136.50 1.68Q138.66 1.68 140.10 2.07Q141.54 2.46 142.59 2.88Q143.64 3.30 144.60 3.30L144.60 3.30Q145.32 3.30 145.59 3Q145.86 2.70 146.04 2.16L146.04 2.16L147.66 2.16L148.26 12.66L146.22 12.66Q145.62 9.78 144.27 7.77Q142.92 5.76 141.00 4.68Q139.08 3.60 136.68 3.60L136.68 3.60Q133.56 3.60 131.58 5.31Q129.60 7.02 129.60 9.66L129.60 9.66Q129.60 11.82 130.86 13.14Q132.12 14.46 133.89 15.27Q135.66 16.08 137.04 16.68L137.04 16.68L140.94 18.12Q143.70 19.08 145.80 20.67Q147.90 22.26 149.10 24.48Q150.30 26.70 150.30 29.82L150.30 29.82Q150.30 32.82 149.25 35.22Q148.20 37.62 146.31 39.30Q144.42 40.98 141.84 41.85Q139.26 42.72 136.20 42.72ZM166.02 42.66L166.02 42.66Q159.42 42.66 155.97 38.97Q152.52 35.28 152.52 27.96L152.52 27.96Q152.52 22.98 154.11 19.68Q155.70 16.38 158.73 14.76Q161.76 13.14 166.20 13.14L166.20 13.14Q169.68 13.14 172.20 14.13Q174.72 15.12 176.31 17.01Q177.90 18.90 178.65 21.54Q179.40 24.18 179.40 27.60L179.40 27.60L179.40 28.14L157.62 28.14L157.62 25.98L170.46 25.98Q170.46 22.32 170.13 19.98Q169.80 17.64 168.87 16.47Q167.94 15.30 166.14 15.30L166.14 15.30Q164.64 15.30 163.59 16.26Q162.54 17.22 162.00 19.62Q161.46 22.02 161.46 26.28L161.46 26.28Q161.46 29.58 161.82 31.95Q162.18 34.32 162.99 35.88Q163.80 37.44 165.21 38.19Q166.62 38.94 168.66 38.94L168.66 38.94Q170.76 38.94 172.29 38.25Q173.82 37.56 174.93 36.30Q176.04 35.04 176.76 33.36L176.76 33.36L178.80 34.44Q178.02 36.30 176.64 38.22Q175.26 40.14 172.77 41.40Q170.28 42.66 166.02 42.66ZM191.76 42.72L191.76 42.72Q189.30 42.72 187.50 41.85Q185.70 40.98 184.77 39.03Q183.84 37.08 183.84 33.90L183.84 33.90L183.84 15.96L180.24 15.96L180.24 13.98Q182.64 13.50 184.68 11.97Q186.72 10.44 188.19 8.13Q189.66 5.82 190.38 3.18L190.38 3.18L192.36 3.18L192.36 13.80L198.24 13.80L198.24 15.96L192.36 15.96L192.36 33.54Q192.36 36.30 193.11 37.71Q193.86 39.12 195.78 39.12L195.78 39.12Q196.86 39.12 197.79 38.67Q198.72 38.22 199.08 37.98L199.08 37.98L200.10 39.66Q199.32 40.20 198.24 40.92Q197.16 41.64 195.60 42.18Q194.04 42.72 191.76 42.72Z"/></g>
        
      </svg>
    