<svg viewBox="0 0 282 44" xmlns="http://www.w3.org/2000/svg" data-logo="logo">
        <g transform="translate(0, 2) rotate(0)" id="logogram" style="opacity: 1;"><path fill="#F08000" d="M63 29.3506L38.117 5.08907C37.4008 4.39081 36.4402 4 35.44 4C31.9983 4 30.2991 8.18294 32.7659 10.583L59.4712 36.5666C60.7577 37.8183 59.8715 40 58.0765 40H9.65685C8.59599 40 7.57857 39.5786 6.82843 38.8284L1.17157 33.1716C0.421426 32.4214 0 31.404 0 30.3431V10.6484L24.883 34.9109C25.5992 35.6092 26.5598 36 27.5601 36C31.0017 36 32.7009 31.8171 30.2342 29.417L3.52882 3.43345C2.24227 2.18166 3.12849 0 4.92354 0L53.3431 0C54.404 0 55.4214 0.421427 56.1716 1.17157L61.8284 6.82843C62.5786 7.57857 63 8.59599 63 9.65685V29.3506Z"></path></g>
        <g transform="translate(69, 1)" id="logotype" style="opacity: 1;"><path d="M47.52 2L47.52 8.84L44.04 8.84L44.04 24.86Q44.04 29 42.48 32.84Q40.92 36.68 37.26 39.14Q33.60 41.60 27.36 41.60L27.36 41.60Q18.48 41.60 14.82 36.71Q11.16 31.82 11.16 25.52L11.16 25.52L11.16 8.84L7.68 8.84L7.68 2L23.76 2L23.76 8.84L19.20 8.84L19.20 25.28Q19.20 29.30 21.15 31.91Q23.10 34.52 27.78 34.52L27.78 34.52Q32.40 34.52 34.47 31.88Q36.54 29.24 36.54 24.86L36.54 24.86L36.54 8.84L31.98 8.84L31.98 2L47.52 2ZM82.32 35.18L82.32 41L67.38 41L67.38 35.18L70.98 35.18L70.98 25.76Q70.98 22.28 69.81 20.78Q68.64 19.28 66.36 19.28L66.36 19.28Q63.60 19.28 62.10 20.99Q60.60 22.70 60.54 25.46L60.54 25.46L60.54 35.18L64.14 35.18L64.14 41L49.20 41L49.20 35.18L52.80 35.18L52.80 19.82L48.90 19.82L48.90 13.94L60.54 13.94L60.54 18.08Q63.24 13.40 69.24 13.40L69.24 13.40Q73.08 13.40 75.90 15.68Q78.72 17.96 78.72 22.76L78.72 22.76L78.72 35.18L82.32 35.18ZM96.00 9.14L88.26 9.14L88.26 1.10L96.00 1.10L96.00 9.14ZM99.90 35.18L99.90 41L84.96 41L84.96 35.18L88.56 35.18L88.56 19.82L84.66 19.82L84.66 13.94L96.30 13.94L96.30 35.18L99.90 35.18ZM119.70 30.86L125.34 32.60Q124.74 37.28 122.10 39.44Q119.46 41.60 115.26 41.60L115.26 41.60Q110.76 41.60 107.97 39.35Q105.18 37.10 105.18 32.90L105.18 32.90L105.18 19.46L101.34 19.46L101.34 13.94L105.18 13.94L105.18 5.72L112.92 5.72L112.92 13.94L122.64 13.94L122.64 19.46L112.92 19.46L112.92 31.58Q112.92 35.12 116.16 35.12L116.16 35.12Q116.88 35.12 118.11 34.49Q119.34 33.86 119.70 30.86L119.70 30.86ZM156.42 29.18L156.42 29.18Q156.42 35.24 152.34 38.42Q148.26 41.60 141.12 41.60L141.12 41.60Q137.16 41.60 133.23 40.58Q129.30 39.56 127.02 37.52L127.02 37.52L128.22 27.86L134.64 28.46L134.58 33.20Q136.62 34.28 138.06 34.49Q139.50 34.70 140.52 34.70L140.52 34.70Q143.70 34.70 145.74 33.89Q147.78 33.08 147.78 30.14L147.78 30.14Q147.78 26.90 145.38 25.79Q142.98 24.68 139.74 24.08L139.74 24.08Q136.92 23.60 134.07 22.67Q131.22 21.74 129.30 19.61Q127.38 17.48 127.38 13.28L127.38 13.28Q127.38 6.74 131.82 4.07Q136.26 1.40 141.54 1.40L141.54 1.40Q145.38 1.40 148.86 2.57Q152.34 3.74 154.20 5.72L154.20 5.72L154.56 14.18L148.14 14.78L147.60 10.22Q146.10 9.20 144.57 8.84Q143.04 8.48 141.60 8.48L141.60 8.48Q139.20 8.48 137.61 9.32Q136.02 10.16 136.02 12.26L136.02 12.26Q136.02 14.72 138.06 15.68Q140.10 16.64 142.74 17.24L142.74 17.24Q145.14 17.72 148.35 18.59Q151.56 19.46 153.99 21.83Q156.42 24.20 156.42 29.18ZM179.58 31.28L186.06 32.48Q185.76 36.08 182.52 38.84Q179.28 41.60 173.46 41.60L173.46 41.60Q167.40 41.60 163.47 38.18Q159.54 34.76 159.54 27.98L159.54 27.98Q159.54 21.74 163.11 17.57Q166.68 13.40 173.10 13.40L173.10 13.40Q178.74 13.40 182.25 16.64Q185.76 19.88 185.82 25.16L185.82 25.16Q185.82 27.14 185.40 29.06L185.40 29.06L167.64 29.06Q168.30 35.48 174.00 35.48L174.00 35.48Q177.12 35.48 178.23 33.98Q179.34 32.48 179.58 31.28L179.58 31.28ZM167.70 24.56L177.84 24.56Q178.08 22.52 176.97 20.72Q175.86 18.92 173.10 18.92L173.10 18.92Q170.70 18.92 169.38 20.48Q168.06 22.04 167.70 24.56L167.70 24.56ZM205.98 30.86L211.62 32.60Q211.02 37.28 208.38 39.44Q205.74 41.60 201.54 41.60L201.54 41.60Q197.04 41.60 194.25 39.35Q191.46 37.10 191.46 32.90L191.46 32.90L191.46 19.46L187.62 19.46L187.62 13.94L191.46 13.94L191.46 5.72L199.20 5.72L199.20 13.94L208.92 13.94L208.92 19.46L199.20 19.46L199.20 31.58Q199.20 35.12 202.44 35.12L202.44 35.12Q203.16 35.12 204.39 34.49Q205.62 33.86 205.98 30.86L205.98 30.86Z" fill="#c3c0b6"></path></g>
        
      </svg>