<svg data-logo="logo" xmlns="http://www.w3.org/2000/svg" viewBox="0 0 214 42">
        <g style="opacity: 1;" id="logogram" transform="translate(0, 1) rotate(0)"><path d="M63 29.3506L38.117 5.08907C37.4008 4.39081 36.4402 4 35.44 4C31.9983 4 30.2991 8.18294 32.7659 10.583L59.4712 36.5666C60.7577 37.8183 59.8715 40 58.0765 40H9.65685C8.59599 40 7.57857 39.5786 6.82843 38.8284L1.17157 33.1716C0.421426 32.4214 0 31.404 0 30.3431V10.6484L24.883 34.9109C25.5992 35.6092 26.5598 36 27.5601 36C31.0017 36 32.7009 31.8171 30.2342 29.417L3.52882 3.43345C2.24227 2.18166 3.12849 0 4.92354 0L53.3431 0C54.404 0 55.4214 0.421427 56.1716 1.17157L61.8284 6.82843C62.5786 7.57857 63 8.59599 63 9.65685V29.3506Z" fill="#F08000"></path></g>
        <g style="opacity: 1;" id="logotype" transform="translate(69, 5.5)"><path fill="#F08000" d="M30.69 2.99L30.69 19.81Q30.69 22.13 29.81 24.17Q28.93 26.21 27.41 27.73Q25.88 29.24 23.84 30.12Q21.80 31 19.48 31L19.48 31Q17.15 31 15.11 30.12Q13.07 29.24 11.56 27.73Q10.04 26.21 9.16 24.17Q8.29 22.13 8.29 19.81L8.29 19.81L8.29 2.99L13.87 2.99L13.87 19.81Q13.87 20.96 14.31 21.98Q14.75 22.99 15.51 23.75Q16.27 24.52 17.30 24.96Q18.32 25.39 19.48 25.39L19.48 25.39Q20.63 25.39 21.65 24.96Q22.68 24.52 23.44 23.75Q24.20 22.99 24.64 21.98Q25.08 20.96 25.08 19.81L25.08 19.81L25.08 2.99L30.69 2.99ZM39.93 19.05L39.93 31L34.59 31L34.59 10.08L35.88 10.08L37.64 12.11Q38.93 10.94 40.56 10.31Q42.19 9.67 43.97 9.67L43.97 9.67Q45.88 9.67 47.58 10.40Q49.28 11.14 50.55 12.42Q51.82 13.70 52.55 15.40Q53.29 17.11 53.29 19.05L53.29 19.05L53.29 31L47.95 31L47.95 19.05Q47.95 18.23 47.64 17.49Q47.33 16.76 46.78 16.21Q46.23 15.67 45.51 15.36Q44.79 15.04 43.97 15.04L43.97 15.04Q43.13 15.04 42.39 15.36Q41.64 15.67 41.10 16.21Q40.55 16.76 40.24 17.49Q39.93 18.23 39.93 19.05L39.93 19.05ZM63.36 4.40L63.36 4.40Q63.36 5.14 63.08 5.79Q62.80 6.43 62.31 6.91Q61.82 7.39 61.17 7.67Q60.51 7.95 59.77 7.95L59.77 7.95Q59.03 7.95 58.37 7.67Q57.72 7.39 57.24 6.91Q56.76 6.43 56.48 5.79Q56.20 5.14 56.20 4.40L56.20 4.40Q56.20 3.68 56.48 3.02Q56.76 2.37 57.24 1.89Q57.72 1.41 58.37 1.13Q59.03 0.84 59.77 0.84L59.77 0.84Q60.51 0.84 61.17 1.13Q61.82 1.41 62.31 1.89Q62.80 2.37 63.08 3.02Q63.36 3.68 63.36 4.40ZM62.45 10.08L62.45 31L57.07 31L57.07 10.08L62.45 10.08ZM81.04 31L77.00 31Q75.06 31 73.36 30.27Q71.66 29.54 70.38 28.26Q69.11 26.98 68.37 25.28Q67.64 23.58 67.64 21.64L67.64 21.64L67.64 15.43L65.04 15.43L65.04 10.12L67.64 10.12L67.64 1.76L72.95 1.76L72.95 10.12L81.04 10.12L81.04 15.43L72.95 15.43L72.95 21.64Q72.95 22.48 73.27 23.22Q73.58 23.95 74.13 24.50Q74.67 25.04 75.41 25.37Q76.16 25.69 77.00 25.69L77.00 25.69L81.04 25.69L81.04 31ZM82.95 11.39L82.95 11.39Q82.95 9.65 83.62 8.13Q84.28 6.61 85.42 5.46Q86.57 4.32 88.09 3.66Q89.61 2.99 91.35 2.99L91.35 2.99L104.20 2.99L104.20 8.60L91.35 8.60Q90.77 8.60 90.26 8.81Q89.75 9.03 89.37 9.41Q88.99 9.79 88.77 10.30Q88.56 10.80 88.56 11.39L88.56 11.39Q88.56 11.98 88.77 12.49Q88.99 13.01 89.37 13.39Q89.75 13.77 90.26 13.99Q90.77 14.20 91.35 14.20L91.35 14.20L96.96 14.20Q98.70 14.20 100.23 14.86Q101.76 15.51 102.90 16.65Q104.05 17.80 104.70 19.33Q105.36 20.86 105.36 22.60L105.36 22.60Q105.36 24.34 104.70 25.86Q104.05 27.39 102.90 28.53Q101.76 29.67 100.23 30.34Q98.70 31 96.96 31L96.96 31L84.52 31L84.52 25.39L96.96 25.39Q97.54 25.39 98.05 25.18Q98.56 24.96 98.94 24.58Q99.32 24.20 99.54 23.70Q99.75 23.19 99.75 22.60L99.75 22.60Q99.75 22.02 99.54 21.51Q99.32 21 98.94 20.62Q98.56 20.24 98.05 20.02Q97.54 19.81 96.96 19.81L96.96 19.81L91.35 19.81Q89.61 19.81 88.09 19.14Q86.57 18.48 85.42 17.34Q84.28 16.20 83.62 14.66Q82.95 13.13 82.95 11.39ZM126.78 13.83L116.78 25.88Q117.09 25.98 117.41 26.01Q117.72 26.04 118.03 26.04L118.03 26.04Q118.81 26.04 119.54 25.82Q120.26 25.61 120.89 25.21Q121.53 24.81 122.03 24.23Q122.52 23.66 122.84 22.95L122.84 22.95L126.74 26.88Q126 27.93 125.03 28.77Q124.07 29.61 122.94 30.20Q121.82 30.79 120.58 31.09Q119.34 31.39 118.03 31.39L118.03 31.39Q115.82 31.39 113.88 30.57Q111.94 29.75 110.48 28.29Q109.03 26.82 108.19 24.80Q107.35 22.78 107.35 20.36L107.35 20.36Q107.35 17.88 108.19 15.82Q109.03 13.77 110.48 12.33Q111.94 10.88 113.88 10.08Q115.82 9.28 118.03 9.28L118.03 9.28Q119.34 9.28 120.59 9.59Q121.84 9.91 122.96 10.49Q124.09 11.08 125.06 11.93Q126.04 12.78 126.78 13.83L126.78 13.83ZM113.30 23.13L119.52 14.89Q119.14 14.75 118.78 14.71Q118.42 14.67 118.03 14.67L118.03 14.67Q116.94 14.67 115.97 15.07Q115.00 15.47 114.29 16.21Q113.58 16.96 113.17 18.00Q112.76 19.05 112.76 20.36L112.76 20.36Q112.76 20.65 112.79 21.02Q112.82 21.39 112.88 21.77Q112.95 22.15 113.05 22.50Q113.15 22.86 113.30 23.13L113.30 23.13ZM143.99 31L139.95 31Q138.01 31 136.31 30.27Q134.61 29.54 133.33 28.26Q132.05 26.98 131.32 25.28Q130.59 23.58 130.59 21.64L130.59 21.64L130.59 15.43L127.99 15.43L127.99 10.12L130.59 10.12L130.59 1.76L135.90 1.76L135.90 10.12L143.99 10.12L143.99 15.43L135.90 15.43L135.90 21.64Q135.90 22.48 136.21 23.22Q136.53 23.95 137.07 24.50Q137.62 25.04 138.36 25.37Q139.11 25.69 139.95 25.69L139.95 25.69L143.99 25.69L143.99 31Z"></path></g>
        
      </svg>